<svg width="60" height="60" viewBox="0 0 60 60" fill="none" xmlns="http://www.w3.org/2000/svg">
<path d="M30 54.7325C16.1925 54.7325 5 43.54 5 29.7325C5 15.925 16.1925 4.73254 30 4.73254C43.8075 4.73254 55 15.9275 55 29.7325C55 43.5375 43.8075 54.7325 30 54.7325ZM30 17.2325C29.337 17.2325 28.7011 17.4959 28.2322 17.9648C27.7634 18.4336 27.5 19.0695 27.5 19.7325V32.2325C27.5 32.8956 27.7634 33.5315 28.2322 34.0003C28.7011 34.4692 29.337 34.7325 30 34.7325C30.663 34.7325 31.2989 34.4692 31.7678 34.0003C32.2366 33.5315 32.5 32.8956 32.5 32.2325V19.7325C32.5 19.0695 32.2366 18.4336 31.7678 17.9648C31.2989 17.4959 30.663 17.2325 30 17.2325ZM30 42.2325C30.663 42.2325 31.2989 41.9692 31.7678 41.5003C32.2366 41.0315 32.5 40.3956 32.5 39.7325C32.5 39.0695 32.2366 38.4336 31.7678 37.9648C31.2989 37.4959 30.663 37.2325 30 37.2325C29.337 37.2325 28.7011 37.4959 28.2322 37.9648C27.7634 38.4336 27.5 39.0695 27.5 39.7325C27.5 40.3956 27.7634 41.0315 28.2322 41.5003C28.7011 41.9692 29.337 42.2325 30 42.2325Z" fill="#E8E4FF"/>
</svg>
