<svg width="60" height="60" viewBox="0 0 60 60" fill="none" xmlns="http://www.w3.org/2000/svg">
<path d="M33.2474 7.87L54.8324 45.255C55.1616 45.8251 55.3348 46.4717 55.3349 47.13C55.3349 47.7882 55.1616 48.4349 54.8325 49.005C54.5034 49.575 54.03 50.0484 53.4599 50.3776C52.8899 50.7067 52.2432 50.88 51.5849 50.88H8.41494C7.75669 50.88 7.11004 50.7067 6.53998 50.3776C5.96992 50.0484 5.49654 49.575 5.16742 49.005C4.8383 48.4349 4.66503 47.7882 4.66504 47.13C4.66504 46.4717 4.83832 45.8251 5.16744 45.255L26.7524 7.87C28.1949 5.37 31.8024 5.37 33.2474 7.87ZM29.9999 37.5C29.3369 37.5 28.701 37.7634 28.2322 38.2322C27.7633 38.7011 27.4999 39.337 27.4999 40C27.4999 40.663 27.7633 41.2989 28.2322 41.7678C28.701 42.2366 29.3369 42.5 29.9999 42.5C30.663 42.5 31.2989 42.2366 31.7677 41.7678C32.2366 41.2989 32.4999 40.663 32.4999 40C32.4999 39.337 32.2366 38.7011 31.7677 38.2322C31.2989 37.7634 30.663 37.5 29.9999 37.5ZM29.9999 20C29.3876 20.0001 28.7966 20.2249 28.339 20.6318C27.8814 21.0387 27.5891 21.5994 27.5174 22.2075L27.4999 22.5V32.5C27.5007 33.1372 27.7446 33.7501 28.1821 34.2134C28.6195 34.6768 29.2173 34.9556 29.8534 34.9929C30.4895 35.0303 31.1159 34.8233 31.6045 34.4143C32.0932 34.0054 32.4072 33.4252 32.4824 32.7925L32.4999 32.5V22.5C32.4999 21.837 32.2366 21.2011 31.7677 20.7322C31.2989 20.2634 30.663 20 29.9999 20Z" fill="#E8E4FF"/>
</svg>
