<svg width="14" height="14" viewBox="0 0 14 14" fill="none" xmlns="http://www.w3.org/2000/svg">
<g clip-path="url(#clip0_408_3896)">
<path d="M12.3962 7.00008C12.3962 4.02005 9.98036 1.60425 7.00033 1.60425C4.02029 1.60425 1.60449 4.02005 1.60449 7.00008C1.60449 9.98012 4.02029 12.3959 7.00033 12.3959C9.98036 12.3959 12.3962 9.98012 12.3962 7.00008ZM13.2712 7.00008C13.2712 10.4634 10.4636 13.2709 7.00033 13.2709C3.53704 13.2709 0.729492 10.4634 0.729492 7.00008C0.729492 3.5368 3.53704 0.729248 7.00033 0.729248C10.4636 0.729248 13.2712 3.5368 13.2712 7.00008Z" fill="#333333"/>
<path d="M5.84514 3.94466C6.2905 3.68292 6.81428 3.58733 7.32342 3.67464C7.83258 3.76197 8.29468 4.02682 8.62737 4.42203C8.95992 4.81712 9.14188 5.31724 9.14121 5.83365L9.13437 5.98347C9.06602 6.71712 8.50627 7.22024 8.07138 7.51017C7.8262 7.67361 7.58396 7.79401 7.40488 7.87361C7.3147 7.91369 7.23866 7.94409 7.18442 7.96476C7.15742 7.97504 7.13571 7.98311 7.12005 7.98868C7.11228 7.99144 7.10591 7.99391 7.10125 7.99552C7.09891 7.99632 7.09649 7.99672 7.09498 7.99723C7.09433 7.99745 7.09376 7.99763 7.09327 7.9978L7.0927 7.99837C6.86348 8.07478 6.61483 7.95074 6.53842 7.72151C6.46221 7.49238 6.58617 7.24476 6.81528 7.16837L6.82667 7.16438C6.8366 7.16085 6.85269 7.15518 6.87338 7.14729C6.91483 7.1315 6.97568 7.10714 7.04941 7.07438C7.19839 7.00816 7.39383 6.91026 7.58603 6.78214C7.99701 6.50815 8.26608 6.18464 8.26621 5.83365V5.83251C8.26661 5.52267 8.15755 5.22248 7.95802 4.98543C7.7584 4.7483 7.4808 4.5895 7.1753 4.5371C6.86993 4.48479 6.55604 4.5425 6.28891 4.69946C6.02173 4.85648 5.81813 5.10268 5.71526 5.39501C5.63508 5.62295 5.3855 5.74294 5.15756 5.66275C4.9297 5.58255 4.81026 5.33295 4.89039 5.10506C5.06182 4.61773 5.39977 4.20641 5.84514 3.94466Z" fill="#333333"/>
<path d="M7.00602 9.47925C7.24765 9.47925 7.44352 9.67512 7.44352 9.91675C7.44352 10.1584 7.24765 10.3542 7.00602 10.3542H7.00033C6.7587 10.3542 6.56283 10.1584 6.56283 9.91675C6.56283 9.67512 6.7587 9.47925 7.00033 9.47925H7.00602Z" fill="#333333"/>
</g>
<defs>
<clipPath id="clip0_408_3896">
<rect width="14" height="14" fill="white"/>
</clipPath>
</defs>
</svg>
