<svg width="14" height="14" viewBox="0 0 14 14" fill="none" xmlns="http://www.w3.org/2000/svg">
<g clip-path="url(#clip0_492_4586)">
<path d="M12.3957 7.00008C12.3957 4.02005 9.97987 1.60425 6.99984 1.60425C4.0198 1.60425 1.604 4.02005 1.604 7.00008C1.604 9.98012 4.0198 12.3959 6.99984 12.3959C9.97987 12.3959 12.3957 9.98012 12.3957 7.00008ZM13.2707 7.00008C13.2707 10.4634 10.4631 13.2709 6.99984 13.2709C3.53655 13.2709 0.729004 10.4634 0.729004 7.00008C0.729004 3.5368 3.53655 0.729248 6.99984 0.729248C10.4631 0.729248 13.2707 3.5368 13.2707 7.00008Z" fill="#5A48BF"/>
<path d="M5.84466 3.94466C6.29001 3.68292 6.81379 3.58733 7.32293 3.67464C7.83209 3.76197 8.29419 4.02682 8.62688 4.42203C8.95943 4.81712 9.14139 5.31724 9.14072 5.83365L9.13388 5.98347C9.06553 6.71712 8.50578 7.22024 8.07089 7.51017C7.82572 7.67361 7.58347 7.79401 7.40439 7.87361C7.31421 7.91369 7.23817 7.94409 7.18393 7.96476C7.15693 7.97504 7.13522 7.98311 7.11956 7.98868C7.11179 7.99144 7.10542 7.99391 7.10076 7.99552C7.09842 7.99632 7.096 7.99672 7.09449 7.99723C7.09384 7.99745 7.09327 7.99763 7.09278 7.9978L7.09221 7.99837C6.86299 8.07478 6.61434 7.95074 6.53793 7.72151C6.46173 7.49238 6.58568 7.24476 6.81479 7.16837L6.82618 7.16438C6.83612 7.16085 6.8522 7.15518 6.87289 7.14729C6.91434 7.1315 6.97519 7.10714 7.04892 7.07438C7.19791 7.00816 7.39334 6.91026 7.58554 6.78214C7.99652 6.50815 8.2656 6.18464 8.26572 5.83365V5.83251C8.26612 5.52267 8.15706 5.22248 7.95753 4.98543C7.75792 4.7483 7.48031 4.5895 7.17482 4.5371C6.86944 4.48479 6.55555 4.5425 6.28842 4.69946C6.02124 4.85648 5.81765 5.10268 5.71477 5.39501C5.63459 5.62295 5.38501 5.74294 5.15707 5.66275C4.92921 5.58255 4.80977 5.33295 4.8899 5.10506C5.06133 4.61773 5.39928 4.20641 5.84466 3.94466Z" fill="#5A48BF"/>
<path d="M7.00553 9.47925C7.24716 9.47925 7.44303 9.67512 7.44303 9.91675C7.44303 10.1584 7.24716 10.3542 7.00553 10.3542H6.99984C6.75821 10.3542 6.56234 10.1584 6.56234 9.91675C6.56234 9.67512 6.75821 9.47925 6.99984 9.47925H7.00553Z" fill="#5A48BF"/>
</g>
<defs>
<clipPath id="clip0_492_4586">
<rect width="14" height="14" fill="white"/>
</clipPath>
</defs>
</svg>
