<svg width="100" height="100" viewBox="0 0 100 100" fill="none" xmlns="http://www.w3.org/2000/svg">
<path d="M36.8678 51.3083V66.9125" stroke="#5A48BF" stroke-width="3" stroke-linecap="round" stroke-linejoin="round"/>
<path d="M44.8293 59.1113H28.908" stroke="#5A48BF" stroke-width="3" stroke-linecap="round" stroke-linejoin="round"/>
<path d="M64.0256 51.7835H63.5796" stroke="#5A48BF" stroke-width="3" stroke-linecap="round" stroke-linejoin="round"/>
<path d="M71.5817 66.6775H71.1358" stroke="#5A48BF" stroke-width="3" stroke-linecap="round" stroke-linejoin="round"/>
<path d="M33.634 8.33331C33.634 11.4187 36.186 13.9198 39.3341 13.9198H43.7361C48.5929 13.9371 52.5269 17.7927 52.5489 22.5527V25.3655" stroke="#5A48BF" stroke-width="3" stroke-linecap="round" stroke-linejoin="round"/>
<path fill-rule="evenodd" clip-rule="evenodd" d="M68.4512 91.5109C55.9296 91.7229 43.6376 91.7142 31.553 91.5109C18.1395 91.5109 8.33325 81.9433 8.33325 68.797V49.4238C8.33325 36.2775 18.1395 26.7099 31.553 26.7099C43.7038 26.5022 56.0047 26.5066 68.4512 26.7099C81.8647 26.7099 91.6666 36.2819 91.6666 49.4238V68.797C91.6666 81.9433 81.8647 91.5109 68.4512 91.5109Z" stroke="#5A48BF" stroke-width="3" stroke-linecap="round" stroke-linejoin="round"/>
</svg>
