<svg width="10" height="10" viewBox="0 0 10 10" fill="none" xmlns="http://www.w3.org/2000/svg">
<path d="M3.42409 5.15701V7.02951" stroke="#5A48BF" stroke-linecap="round" stroke-linejoin="round"/>
<path d="M4.37956 6.09335H2.46899" stroke="#5A48BF" stroke-linecap="round" stroke-linejoin="round"/>
<path d="M6.68303 5.21401H6.62952" stroke="#5A48BF" stroke-linecap="round" stroke-linejoin="round"/>
<path d="M7.58977 7.00131H7.53625" stroke="#5A48BF" stroke-linecap="round" stroke-linejoin="round"/>
<path d="M3.03613 0C3.03613 0.370241 3.34237 0.670381 3.72014 0.670381H4.24838C4.83119 0.672458 5.30327 1.13513 5.30592 1.70633V2.04386" stroke="#5A48BF" stroke-linecap="round" stroke-linejoin="round"/>
<path fill-rule="evenodd" clip-rule="evenodd" d="M7.21416 9.98132C5.71156 10.0068 4.23652 10.0057 2.78637 9.98132C1.17675 9.98132 0 8.8332 0 7.25565V4.93087C0 3.35332 1.17675 2.20521 2.78637 2.20521C4.24446 2.18028 5.72057 2.1808 7.21416 2.20521C8.82378 2.20521 10 3.35384 10 4.93087V7.25565C10 8.8332 8.82378 9.98132 7.21416 9.98132Z" stroke="#5A48BF" stroke-linecap="round" stroke-linejoin="round"/>
</svg>
