<svg width="10" height="10" viewBox="0 0 10 10" fill="none" xmlns="http://www.w3.org/2000/svg">
<path d="M3.42409 5.157V7.0295" stroke="#5A48BF" stroke-linecap="round" stroke-linejoin="round"/>
<path d="M4.37956 6.09335H2.46899" stroke="#5A48BF" stroke-linecap="round" stroke-linejoin="round"/>
<path d="M6.68303 5.21401H6.62952" stroke="#5A48BF" stroke-linecap="round" stroke-linejoin="round"/>
<path d="M7.58977 7.00131H7.53625" stroke="#5A48BF" stroke-linecap="round" stroke-linejoin="round"/>
<path d="M3.03613 0C3.03613 0.370241 3.34237 0.670381 3.72014 0.670381H4.24838C4.83119 0.672458 5.30327 1.13513 5.30592 1.70633V2.04386" stroke="#5A48BF" stroke-linecap="round" stroke-linejoin="round"/>
<path fill-rule="evenodd" clip-rule="evenodd" d="M7.21416 9.9813C5.71156 10.0067 4.23652 10.0057 2.78637 9.9813C1.17675 9.9813 0 8.83319 0 7.25564V4.93085C0 3.3533 1.17675 2.20519 2.78637 2.20519C4.24446 2.18027 5.72057 2.18079 7.21416 2.20519C8.82378 2.20519 10 3.35382 10 4.93085V7.25564C10 8.83319 8.82378 9.9813 7.21416 9.9813Z" stroke="#5A48BF" stroke-linecap="round" stroke-linejoin="round"/>
</svg>
