<svg width="24" height="24" viewBox="0 0 24 24" fill="none" xmlns="http://www.w3.org/2000/svg">
<path d="M22.0156 10.1461L12.7068 1.582C12.4042 1.30359 12.0056 1.15292 11.5945 1.16148C11.1834 1.17004 10.7915 1.33717 10.5008 1.62794L1.93936 10.1894L1.5 10.6287V23.25H9.75V15.375H14.25V23.25H22.5V10.5918L22.0156 10.1461ZM11.6268 2.66116C11.64 2.66116 11.6318 2.66402 11.6262 2.6696C11.6203 2.66402 11.6136 2.66116 11.6268 2.66116ZM21 21.75H15.75V15.375C15.75 14.9772 15.592 14.5957 15.3107 14.3144C15.0294 14.0331 14.6478 13.875 14.25 13.875H9.75C9.35218 13.875 8.97064 14.0331 8.68934 14.3144C8.40804 14.5957 8.25 14.9772 8.25 15.375V21.75H3V11.25L11.6268 2.68858C11.6274 2.68802 11.6274 2.6875 11.6279 2.68694L21 11.25V21.75Z" fill="black"/>
</svg>
