<svg width="20" height="20" viewBox="0 0 20 20" fill="none" xmlns="http://www.w3.org/2000/svg">
<path d="M10.0479 0C10.3369 0.0001256 10.5711 0.234394 10.5713 0.523438V1.44922C14.8818 1.73293 18.3212 5.20115 18.5576 9.52441H19.4766C19.7657 9.52461 20 9.75868 20 10.0479C19.9999 10.337 19.7656 10.5711 19.4766 10.5713H18.5508C18.2691 14.8498 14.8498 18.2682 10.5713 18.5498V19.4766C10.5711 19.7656 10.3369 19.9999 10.0479 20C9.75866 20 9.5236 19.7657 9.52344 19.4766V18.5576C5.20071 18.3207 1.73296 14.8814 1.44922 10.5713H0.523438C0.234355 10.5711 6.27777e-05 10.337 0 10.0479C0 9.75868 0.234317 9.52462 0.523438 9.52441H1.44238C1.68051 5.16949 5.16865 1.68005 9.52344 1.44141V0.523438C9.52364 0.234316 9.75868 0 10.0479 0ZM9.52344 2.46387C5.73191 2.7 2.70047 5.73275 2.46484 9.52441H3.76172C4.05101 9.52441 4.28613 9.75856 4.28613 10.0479C4.28607 10.3371 4.05097 10.5713 3.76172 10.5713H2.47168C2.75206 14.3181 5.76397 17.301 9.52344 17.5352V16.2383C9.52344 15.949 9.75856 15.7148 10.0479 15.7148C10.337 15.715 10.5713 15.9491 10.5713 16.2383V17.5273C14.2865 17.2493 17.2503 14.2865 17.5283 10.5713H16.2383C15.949 10.5713 15.7139 10.3371 15.7139 10.0479C15.7139 9.75856 15.949 9.52441 16.2383 9.52441H17.5352C17.3015 5.76442 14.3185 2.75204 10.5713 2.47168V3.76172C10.5713 4.05093 10.337 4.28601 10.0479 4.28613C9.75856 4.28613 9.52344 4.05101 9.52344 3.76172V2.46387ZM10 6.19043C12.1039 6.19043 13.8096 7.89606 13.8096 10C13.8095 12.1039 12.1039 13.8096 10 13.8096C7.89607 13.8096 6.19045 12.1039 6.19043 10C6.19043 7.89606 7.89606 6.19043 10 6.19043ZM10 7.05762C8.37489 7.05762 7.05762 8.37489 7.05762 10C7.05764 11.6251 8.37491 12.9424 10 12.9424C11.6251 12.9424 12.9424 11.6251 12.9424 10C12.9424 8.37489 11.6251 7.05762 10 7.05762Z" fill="#5A48BF"/>
</svg>
