<svg width="20" height="20" viewBox="0 0 20 20" fill="none" xmlns="http://www.w3.org/2000/svg">
<path d="M10 0C15.5228 0 20 4.47715 20 10C20 15.5228 15.5228 20 10 20C4.47715 20 0 15.5228 0 10C0 4.47715 4.47715 0 10 0ZM10 1.34961C5.22242 1.34961 1.34961 5.22242 1.34961 10C1.34961 14.7776 5.22242 18.6504 10 18.6504C14.7776 18.6504 18.6504 14.7776 18.6504 10C18.6504 5.22242 14.7776 1.34961 10 1.34961ZM12.9902 7.46973C13.2832 7.17714 13.758 7.17693 14.0508 7.46973C14.3433 7.76254 14.3433 8.23746 14.0508 8.53027L9.30469 13.2764C9.01192 13.5691 8.53706 13.5689 8.24414 13.2764L5.87012 10.9033C5.57725 10.6105 5.57732 10.1357 5.87012 9.84277C6.16298 9.55015 6.63782 9.55005 6.93066 9.84277L8.77344 11.6855L12.9902 7.46973Z" fill="#5A48BF"/>
</svg>
