<svg width="35" height="18" viewBox="0 0 35 18" fill="none" xmlns="http://www.w3.org/2000/svg">
<rect width="35" height="18" rx="9" fill="white"/>
<path d="M13.8456 5.63536V12H12.702L9.90504 7.95684H9.85843V12H8.53764V5.63536H9.69993L12.4751 9.67541H12.5311V5.63536H13.8456ZM16.7535 12.0932C15.2898 12.0932 14.3916 11.1485 14.3916 9.63501C14.3916 8.16195 15.3022 7.16436 16.7007 7.16436C17.9531 7.16436 18.9414 7.95684 18.9414 9.58529V9.94889H15.6782C15.6782 10.673 16.1071 11.1174 16.7753 11.1174C17.2228 11.1174 17.5398 10.9247 17.6703 10.6419H18.9072C18.7207 11.5214 17.9313 12.0932 16.7535 12.0932ZM15.6782 9.13467H17.7138C17.7076 8.55663 17.3067 8.13709 16.7255 8.13709C16.1257 8.13709 15.7093 8.58771 15.6782 9.13467ZM20.3681 12L19.0628 7.22652H20.3805L21.1295 10.4523H21.173L21.9561 7.22652H23.249L24.0383 10.4306H24.0818L24.8184 7.22652H26.136L24.8308 12H23.4603L22.6305 8.96996H22.5684L21.7417 12H20.3681Z" fill="#5A48BF"/>
</svg>
