<svg width="16" height="16" viewBox="0 0 16 16" fill="none" xmlns="http://www.w3.org/2000/svg">
<path d="M8.00016 1.33325C11.6822 1.33325 14.6668 4.31792 14.6668 7.99992C14.6668 11.6819 11.6822 14.6666 8.00016 14.6666C4.31816 14.6666 1.3335 11.6819 1.3335 7.99992C1.3335 4.31792 4.31816 1.33325 8.00016 1.33325ZM8.00016 3.99992C7.82335 3.99992 7.65378 4.07016 7.52876 4.19518C7.40373 4.32021 7.3335 4.48977 7.3335 4.66659V7.99992C7.33353 8.17672 7.4038 8.34626 7.52883 8.47125L9.52883 10.4713C9.65456 10.5927 9.82297 10.6599 9.99776 10.6584C10.1726 10.6568 10.3398 10.5867 10.4634 10.4631C10.587 10.3395 10.6571 10.1723 10.6586 9.99752C10.6601 9.82272 10.5929 9.65432 10.4715 9.52859L8.66683 7.72392V4.66659C8.66683 4.48977 8.59659 4.32021 8.47157 4.19518C8.34654 4.07016 8.17697 3.99992 8.00016 3.99992Z" fill="white"/>
</svg>
